<svg xmlns="http://www.w3.org/2000/svg" width="36" height="27" viewBox="0 0 36 27">
  <path id="envelope-regular" d="M32.625,64H3.375A3.375,3.375,0,0,0,0,67.375v20.25A3.375,3.375,0,0,0,3.375,91h29.25A3.375,3.375,0,0,0,36,87.625V67.375A3.375,3.375,0,0,0,32.625,64Zm0,3.375v2.869c-1.577,1.284-4.09,3.28-9.463,7.488-1.184.931-3.53,3.169-5.162,3.143-1.632.026-3.978-2.212-5.162-3.143-5.372-4.207-7.886-6.2-9.463-7.488V67.375ZM3.375,87.625V74.575c1.611,1.283,3.9,3.084,7.378,5.811C12.29,81.6,14.982,84.266,18,84.25c3,.016,5.661-2.616,7.246-3.863,3.482-2.727,5.768-4.528,7.379-5.812v13.05Z" transform="translate(0 -64)" fill="#002b7f"/>
</svg>
