<svg xmlns="http://www.w3.org/2000/svg" width="40.32" height="40.319" viewBox="0 0 40.32 40.319">
  <g id="Group_298" data-name="Group 298" transform="translate(-70 -436)">
    <g id="Group_264" data-name="Group 264" transform="translate(-178 -142)">
      <g id="Rectangle_19" data-name="Rectangle 19" transform="translate(-105.669 202.283)">
        <rect id="Rectangle_184" data-name="Rectangle 184" width="40.319" height="40.319" rx="10.673" transform="translate(353.669 375.717)" fill="#b2fce9"/>
        <path id="Path_121" data-name="Path 121" d="M386.481,416.036h-25.3a7.517,7.517,0,0,1-7.508-7.508v-25.3a7.517,7.517,0,0,1,7.508-7.508h25.3a7.517,7.517,0,0,1,7.508,7.508v25.3A7.516,7.516,0,0,1,386.481,416.036Zm-25.3-37.735a4.929,4.929,0,0,0-4.924,4.924v25.3a4.929,4.929,0,0,0,4.924,4.924h25.3a4.929,4.929,0,0,0,4.924-4.924v-25.3a4.929,4.929,0,0,0-4.924-4.924Z" transform="translate(0 0)" fill="#b2fce9"/>
      </g>
      <path id="github-brands" d="M10.377,32.356c0,.125-.144.225-.325.225-.206.019-.35-.081-.35-.225,0-.125.144-.225.325-.225C10.214,32.112,10.377,32.212,10.377,32.356Zm-1.945-.281c-.044.125.081.269.269.306a.293.293,0,0,0,.388-.125c.038-.125-.081-.269-.269-.325A.321.321,0,0,0,8.431,32.074Zm2.765-.106c-.181.044-.306.163-.288.306.019.125.181.206.369.163s.306-.163.288-.288S11.377,31.949,11.2,31.968ZM15.312,8A15,15,0,0,0,0,23.262,15.681,15.681,0,0,0,10.6,38.223c.8.144,1.082-.35,1.082-.757,0-.388-.019-2.527-.019-3.84,0,0-4.378.938-5.3-1.864,0,0-.713-1.82-1.739-2.289,0,0-1.432-.982.1-.963a3.3,3.3,0,0,1,2.414,1.614A3.306,3.306,0,0,0,11.7,31.43a3.476,3.476,0,0,1,1-2.108c-3.5-.388-7.024-.894-7.024-6.911a4.74,4.74,0,0,1,1.476-3.684,5.91,5.91,0,0,1,.163-4.247c1.307-.407,4.316,1.689,4.316,1.689a14.776,14.776,0,0,1,7.856,0s3.009-2.1,4.316-1.689a5.907,5.907,0,0,1,.163,4.247,4.862,4.862,0,0,1,1.614,3.684c0,6.036-3.684,6.517-7.18,6.911a3.7,3.7,0,0,1,1.063,2.9c0,2.108-.019,4.716-.019,5.229,0,.407.288.9,1.082.757a15.537,15.537,0,0,0,10.5-14.949C31.023,14.586,23.987,8,15.312,8ZM6.08,29.573c-.081.063-.063.206.044.325.1.1.244.144.325.063.081-.063.063-.206-.044-.325C6.3,29.535,6.161,29.491,6.08,29.573ZM5.4,29.066c-.044.081.019.181.144.244a.186.186,0,0,0,.269-.044c.044-.081-.019-.181-.144-.244C5.548,28.985,5.448,29,5.4,29.066Zm2.027,2.227c-.1.081-.063.269.081.388.144.144.325.163.407.063.081-.081.044-.269-.081-.388C7.7,31.211,7.512,31.193,7.431,31.293Zm-.713-.919c-.1.063-.1.225,0,.369s.269.206.35.144a.285.285,0,0,0,0-.388C6.98,30.354,6.818,30.292,6.718,30.373Z" transform="translate(253 575)" fill="#002b7f"/>
    </g>
  </g>
</svg>
