<svg xmlns="http://www.w3.org/2000/svg" width="20.331" height="19.823" viewBox="0 0 20.331 19.823">
  <path id="github-brands" d="M6.8,23.962c0,.082-.094.148-.213.148-.135.012-.23-.053-.23-.148s.094-.148.213-.148S6.8,23.867,6.8,23.962Zm-1.275-.184c-.029.082.053.176.176.2a.192.192,0,0,0,.254-.082c.025-.082-.053-.176-.176-.213a.21.21,0,0,0-.254.094Zm1.812-.07c-.119.029-.2.107-.189.2s.119.135.242.107.2-.107.189-.189S7.456,23.7,7.337,23.707ZM10.034,8A9.829,9.829,0,0,0,0,18a10.277,10.277,0,0,0,6.948,9.8c.525.094.709-.23.709-.5s-.012-1.656-.012-2.517c0,0-2.869.615-3.472-1.222,0,0-.467-1.193-1.14-1.5,0,0-.939-.644.066-.631A2.164,2.164,0,0,1,4.681,22.5a2.167,2.167,0,0,0,2.988.857,2.278,2.278,0,0,1,.656-1.381c-2.291-.254-4.6-.586-4.6-4.529a3.107,3.107,0,0,1,.967-2.414A3.873,3.873,0,0,1,4.8,12.247c.857-.266,2.828,1.107,2.828,1.107a9.684,9.684,0,0,1,5.148,0s1.972-1.377,2.828-1.107a3.871,3.871,0,0,1,.107,2.783,3.186,3.186,0,0,1,1.058,2.414c0,3.956-2.414,4.271-4.706,4.529a2.424,2.424,0,0,1,.7,1.9c0,1.381-.012,3.091-.012,3.427,0,.266.189.59.709.5A10.182,10.182,0,0,0,20.331,18,10.051,10.051,0,0,0,10.034,8ZM3.984,22.137c-.053.041-.041.135.029.213s.16.094.213.041.041-.135-.029-.213S4.038,22.084,3.984,22.137Zm-.443-.332c-.029.053.012.119.094.16a.122.122,0,0,0,.176-.029c.029-.053-.012-.119-.094-.16C3.636,21.752,3.57,21.764,3.542,21.805ZM4.87,23.265c-.066.053-.041.176.053.254.094.094.213.107.266.041s.029-.176-.053-.254C5.046,23.211,4.923,23.2,4.87,23.265Zm-.467-.6c-.066.041-.066.148,0,.242s.176.135.23.094a.187.187,0,0,0,0-.254C4.574,22.65,4.468,22.609,4.4,22.662Z" transform="translate(0 -8)" fill="#002b7f"/>
</svg>
