<svg id="Group_1" data-name="Group 1" xmlns="http://www.w3.org/2000/svg" width="135.511" height="44" viewBox="0 0 135.511 44">
  <path id="Path_1" data-name="Path 1" d="M692.147,360a13.151,13.151,0,1,0,13.125,13.175A13.151,13.151,0,0,0,692.147,360Zm-.046,19.7a6.576,6.576,0,1,1,6.587-6.564A6.576,6.576,0,0,1,692.1,379.7Z" transform="translate(-648.237 -359.975)" fill="#ef7667"/>
  <path id="Path_2" data-name="Path 2" d="M935.967,359.975a3.286,3.286,0,0,0-2.937,1.828h0l-6.747,14.5a.184.184,0,0,1-.333,0l-6.628-14.217-.2-.43h0a3.286,3.286,0,0,0-5.959,2.73l.413.95,8.038,17.289.521,1.1a4.384,4.384,0,0,0,7.987-.04l.506-1.062,8.261-17.817a3.286,3.286,0,0,0-2.915-4.83Z" transform="translate(-852.658 -359.95)" fill="#ef7667"/>
  <path id="Path_3" data-name="Path 3" d="M1397.243,362.965a3.286,3.286,0,0,0-4.1-2.123v-.006l-.059.018a17.5,17.5,0,0,0-5.543,2.983v-.556a3.288,3.288,0,1,0-6.576,0v13.891q-.007.354,0,.7v5.13a3.288,3.288,0,0,0,6.576,0V377.75q0-.22,0-.439a10.964,10.964,0,0,1,7.452-10.165c.047-.013.093-.026.14-.041l.018-.007.108-.038A3.286,3.286,0,0,0,1397.243,362.965Z" transform="translate(-1261.894 -359.971)" fill="#ef7667"/>
  <path id="Path_4" data-name="Path 4" d="M461.31,381.511h0l-3.087-3.062c-.028-.034-.056-.069-.085-.1a3.323,3.323,0,0,0-4.633-.354,6.564,6.564,0,0,1-10.485-7.311l.007-.018c.03-.076.063-.152.1-.227.02-.044.04-.089.062-.133l.057-.118c.042-.083.085-.166.131-.249l.006-.01a6.578,6.578,0,0,1,10.392-1.445h0c.063.063.127.121.194.177a6.567,6.567,0,0,1,1.576,2.993h0a3.288,3.288,0,0,0,6.411-1.46l-.044-.228a11.5,11.5,0,0,0-1.222-3.145,13.108,13.108,0,0,0-7.9-6.314l-.146-.04-.118-.032a13.143,13.143,0,1,0-5.257,25.7l.1.014.165.021a13.1,13.1,0,0,0,7.737-1.4l1.4,1.388h0a3.286,3.286,0,0,0,4.793-4.492C461.408,381.611,461.359,381.56,461.31,381.511Z" transform="translate(-435.936 -359.962)" fill="#ef7667"/>
  <path id="Path_5" data-name="Path 5" d="M460.267,603.752a3.285,3.285,0,0,0-.762,1.183c-.009.025-.018.051-.027.076l0,.009a6.568,6.568,0,0,1-11.767,1.264,6.636,6.636,0,0,1-.58-1.178c-.01-.032-.021-.063-.032-.095l-.026-.071a3.288,3.288,0,1,0-6.167,2.282v.005l.008.021a13.14,13.14,0,0,0,24.709.1c.017-.041.033-.084.051-.126.024-.066.046-.132.066-.2a3.289,3.289,0,0,0-5.468-3.278Z" transform="translate(-440.1 -571.966)" fill="#ef7667"/>
  <path id="Path_6" data-name="Path 6" d="M1159.7,369.387l-1.516,1.179a3.329,3.329,0,0,0-.77,4.455,3.286,3.286,0,0,0,4.758.774l4.471-3.481,1.294-1.007.038-.03a5.479,5.479,0,0,0-.131-8.745l-.145-.1-.009-.007a13.153,13.153,0,1,0,.539,21.159h0a3.337,3.337,0,0,0,.612-4.563,3.286,3.286,0,0,0-4.651-.625l-.018-.024-.005,0a6.576,6.576,0,1,1-1.906-11.4.218.218,0,0,1,.061.379Z" transform="translate(-1057.218 -360.018)" fill="#ef7667"/>
</svg>
