<svg id="Group_5" data-name="Group 5" xmlns="http://www.w3.org/2000/svg" width="159.405" height="58" viewBox="0 0 159.405 58">
  <path id="Path_79" data-name="Path 79" d="M4165.129,5405.162a.819.819,0,0,0-.639-.28.99.99,0,0,0-.467.125.816.816,0,0,0-.327.357q-.3.608-.84,1.635a15.383,15.383,0,0,1-1.261,1.993,9.522,9.522,0,0,1-1.572,1.7,2.734,2.734,0,0,1-1.775.717,2.773,2.773,0,0,1-2.335-1.65,15.18,15.18,0,0,1-1.541-4.562c.856-1.558,1.666-3.146,2.413-4.78a47.431,47.431,0,0,0,1.961-4.92,37.849,37.849,0,0,0,1.308-4.9,23.959,23.959,0,0,0,.482-4.718,17.45,17.45,0,0,0-.234-3.13,7.657,7.657,0,0,0-.638-2.086,2.713,2.713,0,0,0-1.027-1.152,2.82,2.82,0,0,0-1.371-.358,2.306,2.306,0,0,0-1.729.779,7.139,7.139,0,0,0-1.354,2.1,17.8,17.8,0,0,0-1.012,3.082c-.28,1.169-.514,2.414-.7,3.722s-.311,2.646-.4,4.018c-.077,1.369-.125,2.692-.125,3.97,0,.888.031,1.9.078,3.036s.156,2.319.312,3.534c.063.436.125.872.2,1.308a.983.983,0,0,0-.187.077.817.817,0,0,0-.327.358q-.3.606-.841,1.635a15.4,15.4,0,0,1-1.261,1.993,9.5,9.5,0,0,1-1.572,1.7,2.734,2.734,0,0,1-1.775.717,2.773,2.773,0,0,1-2.335-1.65,14.918,14.918,0,0,1-1.541-4.562c.856-1.558,1.665-3.146,2.413-4.78a47.469,47.469,0,0,0,1.961-4.921,37.829,37.829,0,0,0,1.308-4.9,24.05,24.05,0,0,0,.482-4.719,17.445,17.445,0,0,0-.233-3.129,7.7,7.7,0,0,0-.639-2.086,2.712,2.712,0,0,0-1.027-1.152,2.818,2.818,0,0,0-1.37-.358,2.307,2.307,0,0,0-1.729.778,7.169,7.169,0,0,0-1.354,2.1,17.9,17.9,0,0,0-1.012,3.082c-.28,1.168-.513,2.413-.7,3.722s-.311,2.646-.4,4.017c-.078,1.37-.124,2.693-.124,3.971,0,.888.031,1.9.077,3.036s.156,2.319.312,3.534c.063.528.14,1.043.233,1.557l-.094.046a.821.821,0,0,0-.326.358,25.813,25.813,0,0,1-1.448,2.569,15.072,15.072,0,0,1-1.463,1.977,7.322,7.322,0,0,1-1.417,1.277,2.418,2.418,0,0,1-1.339.451,2.477,2.477,0,0,1-.826-.14,1.925,1.925,0,0,1-.81-.545,3.33,3.33,0,0,1-.623-1.152,6.409,6.409,0,0,1-.25-1.946c0-.592.016-1.246.062-1.946.031-.7.078-1.386.141-2.008q.07-.958.14-1.636c.031-.451.062-.731.062-.826a.9.9,0,0,0-.233-.606.746.746,0,0,0-.577-.265.88.88,0,0,0-.638.233.99.99,0,0,0-.3.561c-.171,1.308-.28,2.6-.342,3.877a.158.158,0,0,0-.062.077c-.016.031-.016.048-.031.077a14.864,14.864,0,0,1-1.229,2.164,14.084,14.084,0,0,1-1.868,2.211,18.763,18.763,0,0,1-2.492,2.071,18.429,18.429,0,0,1-3.1,1.744c0-.482,0-1.06.016-1.729s.016-1.355.016-2.087v-4.185c.84-1.51,1.635-3.036,2.381-4.593a40.965,40.965,0,0,0,1.946-4.779,35.412,35.412,0,0,0,1.309-5.045,29.8,29.8,0,0,0,.482-5.387,17.242,17.242,0,0,0-.187-2.538,7.816,7.816,0,0,0-.592-2.118,3.785,3.785,0,0,0-1.09-1.432,2.479,2.479,0,0,0-1.634-.529,2.449,2.449,0,0,0-2.024,1.1,8.874,8.874,0,0,0-1.261,3.239,36.387,36.387,0,0,0-.669,5.216q-.21,3.082-.281,7.006c-.031,1.37-.046,2.818-.062,4.359s-.031,3.083-.046,4.671v.452a2.52,2.52,0,0,0-.14.218c-.171.389-.42.919-.778,1.557a15.052,15.052,0,0,1-1.214,1.885,9.959,9.959,0,0,1-1.526,1.6,2.675,2.675,0,0,1-1.7.67,1.261,1.261,0,0,1-.778-.219,1.568,1.568,0,0,1-.467-.591,3.39,3.39,0,0,1-.218-.872,7.908,7.908,0,0,1-.062-1.059c0-.3.016-.592.031-.919.031-.326.046-.652.062-.965s.046-.623.063-.9.031-.529.031-.716a3.754,3.754,0,0,0-.576-2.148,2,2,0,0,0-1.775-.872,2.806,2.806,0,0,0-1.276.358,4.805,4.805,0,0,0-1.355,1.152,18.708,18.708,0,0,0-1.276,1.743c-.4.623-.794,1.215-1.167,1.838s-.716,1.229-1.043,1.821-.607,1.152-.856,1.65c.046-.437.093-1,.155-1.65.046-.654.109-1.309.171-1.978s.109-1.277.156-1.869.062-1.012.062-1.276a4.958,4.958,0,0,0-.109-1.074,3.7,3.7,0,0,0-.327-.966,1.969,1.969,0,0,0-.591-.7,1.538,1.538,0,0,0-.9-.265,2.474,2.474,0,0,0-1.805,1.152,15.773,15.773,0,0,0-1.946,3.6.092.092,0,0,0-.016.062c-.311.686-.652,1.371-1.042,2.056a12.107,12.107,0,0,1-1.355,1.946,6.642,6.642,0,0,1-1.681,1.4,4.353,4.353,0,0,1-3.923.14,3.567,3.567,0,0,1-1.245-1.059,9.379,9.379,0,0,0,1.681-1.028,7.641,7.641,0,0,0,1.355-1.308,5.99,5.99,0,0,0,.887-1.526,4.808,4.808,0,0,0,.327-1.758,3.143,3.143,0,0,0-.25-1.309,2.98,2.98,0,0,0-.669-.966,3.184,3.184,0,0,0-.934-.622,2.646,2.646,0,0,0-1.043-.218,3.582,3.582,0,0,0-1.65.4,3.935,3.935,0,0,0-1.292,1.137,5.433,5.433,0,0,0-.826,1.713,4.457,4.457,0,0,0-.14.623.8.8,0,0,0-.187.265c-.326.716-.685,1.433-1.09,2.148a12.1,12.1,0,0,1-1.354,1.946,6.613,6.613,0,0,1-1.681,1.4,4.357,4.357,0,0,1-3.923.141,3.572,3.572,0,0,1-1.245-1.059,9.317,9.317,0,0,0,1.681-1.028,7.7,7.7,0,0,0,1.354-1.308,6,6,0,0,0,.888-1.526,4.84,4.84,0,0,0,.327-1.759,3.153,3.153,0,0,0-.25-1.308,2.984,2.984,0,0,0-.669-.966,3.178,3.178,0,0,0-.934-.622,2.645,2.645,0,0,0-1.043-.218,3.583,3.583,0,0,0-1.65.4,3.941,3.941,0,0,0-1.292,1.137,5.426,5.426,0,0,0-.825,1.712c-.063.2-.109.421-.156.639a.641.641,0,0,0-.156.2c-.265.5-.592,1.09-.981,1.76a16.068,16.068,0,0,1-1.323,1.915,8.449,8.449,0,0,1-1.619,1.542,3.119,3.119,0,0,1-1.868.638,2.236,2.236,0,0,1-.716-.124,1.879,1.879,0,0,1-.732-.452,2.437,2.437,0,0,1-.576-.856,3.4,3.4,0,0,1-.231-1.355c0-.39.031-.779.062-1.168.047-.39.094-.795.156-1.2s.109-.794.156-1.183a8.531,8.531,0,0,0,.063-1.09,2.3,2.3,0,0,0-.685-1.869,3.115,3.115,0,0,0-2.008-.576c-.233,0-.467,0-.732.016s-.513.016-.778.016a8.242,8.242,0,0,0-.078-1.074,6.193,6.193,0,0,0-.265-1.184,2.812,2.812,0,0,0-.514-.949,1.091,1.091,0,0,0-.872-.389,1.309,1.309,0,0,0-.918.467,4.768,4.768,0,0,0-.826,1.105,8.158,8.158,0,0,0-.592,1.308,3.478,3.478,0,0,0-.218,1.059,1.31,1.31,0,0,0,.233.825,1.367,1.367,0,0,0,.592.437,2.65,2.65,0,0,0,.778.155c.28.017.545.017.809.017-.14.669-.25,1.167-.343,1.479-.078.249-.14.436-.187.576a2.52,2.52,0,0,0-.14.218,50.729,50.729,0,0,1-6.009,9.295c.016-1.09.031-2.132.062-3.114s.047-1.853.062-2.6.031-1.339.047-1.79a6,6,0,0,0,.015-.7,1.039,1.039,0,0,0-.218-.622.772.772,0,0,0-.607-.28.889.889,0,0,0-.592.218.832.832,0,0,0-.3.529,7.306,7.306,0,0,1-.545,2.055,5.015,5.015,0,0,1-.888,1.433,3.587,3.587,0,0,1-1.043.84,2.352,2.352,0,0,1-1.028.28,1.718,1.718,0,0,1-1.494-.669,2.957,2.957,0,0,1-.483-1.774,6.047,6.047,0,0,1,.483-2.508,5.17,5.17,0,0,1,1.2-1.7,4.689,4.689,0,0,1,1.541-.966,4.64,4.64,0,0,1,1.526-.312,3.453,3.453,0,0,1,.794.095,2.016,2.016,0,0,1,.576.232,3.589,3.589,0,0,1,.389.265,1.683,1.683,0,0,0,.25.188.922.922,0,0,0,.623.249.755.755,0,0,0,.591-.265.861.861,0,0,0,.25-.607.926.926,0,0,0-.25-.622c-.016-.016-.094-.094-.25-.233a3.664,3.664,0,0,0-.654-.436,4.8,4.8,0,0,0-1.027-.405,4.669,4.669,0,0,0-1.308-.187,6.137,6.137,0,0,0-2.2.452,6.387,6.387,0,0,0-2.086,1.37,7.382,7.382,0,0,0-1.557,2.272,7.5,7.5,0,0,0-.607,3.146,5.36,5.36,0,0,0,.25,1.649,4.109,4.109,0,0,0,.716,1.309,3.087,3.087,0,0,0,1.121.872,3.648,3.648,0,0,0,1.463.312,4.2,4.2,0,0,0,1.9-.5,5.384,5.384,0,0,0,1.65-1.371c-.031.889-.047,1.854-.062,2.9,0,1.044-.016,2.1-.031,3.176a19.825,19.825,0,0,0-1.791,2.289,27.835,27.835,0,0,0-1.557,2.632c-.482.918-.9,1.853-1.308,2.818a28.541,28.541,0,0,0-1,2.864,23.578,23.578,0,0,0-.638,2.756,14.784,14.784,0,0,0-.218,2.476,5.729,5.729,0,0,0,.826,3.316,2.734,2.734,0,0,0,2.366,1.168,3.358,3.358,0,0,0,1.884-.529,4.4,4.4,0,0,0,1.354-1.479,8.811,8.811,0,0,0,.918-2.243,21.8,21.8,0,0,0,.561-2.8c.14-1.013.233-2.086.28-3.192s.078-2.258.078-3.394,0-2.2-.016-3.145c-.015-.966-.015-1.916-.015-2.882q2.849-3.549,4.717-6.352a35.625,35.625,0,0,0,2.881-5.092h0a2.061,2.061,0,0,0,.109-.28c.062-.172.14-.389.218-.653s.171-.576.265-.934c.093-.374.171-.764.233-1.152.3-.016.561-.016.826-.016h.7a1.181,1.181,0,0,1,.856.218.99.99,0,0,1,.2.652,10.129,10.129,0,0,1-.233,2.165,11.151,11.151,0,0,0-.233,2.273,5.14,5.14,0,0,0,.327,1.931,3.992,3.992,0,0,0,.872,1.432,3.624,3.624,0,0,0,1.277.888,4.173,4.173,0,0,0,1.573.312,4.556,4.556,0,0,0,2.459-.7,9.374,9.374,0,0,0,2.024-1.743,14.126,14.126,0,0,0,1.51-2.07l.14.56a6.145,6.145,0,0,0,1.059,2.087,5.545,5.545,0,0,0,1.821,1.51,5.471,5.471,0,0,0,2.631.576,6.246,6.246,0,0,0,4.25-1.806,12.585,12.585,0,0,0,2.179-2.786,4.274,4.274,0,0,0,.109.42,6.148,6.148,0,0,0,1.059,2.087,5.552,5.552,0,0,0,1.821,1.51,5.474,5.474,0,0,0,2.632.576,6.245,6.245,0,0,0,4.25-1.806,16.363,16.363,0,0,0,3.44-5.186c.016-.031.031-.047.047-.078a19.085,19.085,0,0,1,1.354-2.771,2.579,2.579,0,0,1,.731-.856,1.057,1.057,0,0,1,.188.639c.031.343.046.716.046,1.09q0,.444-.046,1.075c-.032.42-.063.888-.11,1.386s-.093,1-.14,1.494-.093.966-.14,1.4-.077.81-.11,1.121-.046.529-.046.622a1.556,1.556,0,0,0,.4,1.137,1.43,1.43,0,0,0,1.074.405,1.63,1.63,0,0,0,.95-.327,3.39,3.39,0,0,0,.918-1.292c.155-.326.358-.763.638-1.261s.561-1.044.873-1.6.654-1.137,1.012-1.7c.357-.576.716-1.09,1.059-1.541a6.715,6.715,0,0,1,1-1.105,1.344,1.344,0,0,1,.841-.421.678.678,0,0,1,.42.265,1.553,1.553,0,0,1,.234,1c0,.295-.015.591-.031.918-.032.326-.047.639-.094.965s-.062.623-.094.919a7.151,7.151,0,0,0-.031.779,10.875,10.875,0,0,0,.124,1.588,4.239,4.239,0,0,0,.5,1.432,2.979,2.979,0,0,0,1.012,1.059,3.2,3.2,0,0,0,1.681.405,3.611,3.611,0,0,0,1.759-.451,8.108,8.108,0,0,0,1.572-1.137,10.357,10.357,0,0,0,1.323-1.525c.233-.326.436-.623.638-.935v.685c-.016,1.573-.016,3.084-.016,4.531s-.015,2.787-.015,4.048v3.3c0,1.9.015,3.675.062,5.294a23.845,23.845,0,0,0,.42,4.219,6.669,6.669,0,0,0,1.121,2.8,2.5,2.5,0,0,0,2.148,1.013,2.8,2.8,0,0,0,1.681-.529,4.443,4.443,0,0,0,1.261-1.479,7.328,7.328,0,0,0,.778-2.211,13.152,13.152,0,0,0,.265-2.71,18.131,18.131,0,0,0-.312-3.3,21.2,21.2,0,0,0-.919-3.409,18.811,18.811,0,0,0-1.525-3.254,15.5,15.5,0,0,0-2.164-2.85,19.993,19.993,0,0,0,4.639-2.881,17.779,17.779,0,0,0,3.083-3.316,7.34,7.34,0,0,0,.4,1.821,4.872,4.872,0,0,0,.825,1.464,3.655,3.655,0,0,0,1.261.966,3.959,3.959,0,0,0,1.681.358,3.484,3.484,0,0,0,1.588-.39,6.55,6.55,0,0,0,1.495-1.012,13.214,13.214,0,0,0,1.354-1.417q.631-.8,1.168-1.589c.358-.529.669-1.043.949-1.557.031-.047.047-.094.077-.14a14.817,14.817,0,0,0,1.027,2.8,6.916,6.916,0,0,0,1.682,2.211,3.474,3.474,0,0,0,2.366.84,3.963,3.963,0,0,0,1.7-.373,6.881,6.881,0,0,0,1.494-.981,9.883,9.883,0,0,0,1.308-1.369c.389-.5.747-1.013,1.089-1.542.327-.514.607-1.012.856-1.494a.752.752,0,0,1,.062-.109,14.9,14.9,0,0,0,1.09,3.021,6.885,6.885,0,0,0,1.681,2.211,3.482,3.482,0,0,0,2.367.841,3.98,3.98,0,0,0,1.7-.374,6.94,6.94,0,0,0,1.495-.98,9.939,9.939,0,0,0,1.307-1.37c.39-.5.747-1.013,1.09-1.542.327-.514.607-1.012.873-1.494.249-.482.467-.9.638-1.245a1.384,1.384,0,0,0,.093-.358A.793.793,0,0,0,4165.129,5405.162Zm-43.123-5.122c0-.514.016-1.012.031-1.464s.031-.919.031-1.4c0-.467.016-1.012.032-1.619,0-.3,0-.716.016-1.308s.016-1.245.046-1.993c.016-.747.063-1.557.109-2.429.047-.855.109-1.729.188-2.584s.171-1.683.3-2.477a15.755,15.755,0,0,1,.42-2.1,5.457,5.457,0,0,1,.591-1.463.989.989,0,0,1,.81-.546,1.025,1.025,0,0,1,.778.358,2.93,2.93,0,0,1,.561.98,8.333,8.333,0,0,1,.326,1.526,16.878,16.878,0,0,1,.109,1.993,29.106,29.106,0,0,1-.328,4.364,36.328,36.328,0,0,1-.9,4.246,37.3,37.3,0,0,1-1.37,4.033,36.376,36.376,0,0,1-1.744,3.705c-.015-.685,0-1.309,0-1.821Zm-69,23.447c0,.732-.016,1.525-.047,2.4s-.078,1.745-.156,2.616-.187,1.729-.343,2.554a11.588,11.588,0,0,1-.592,2.18,4.872,4.872,0,0,1-.9,1.525,1.656,1.656,0,0,1-1.246.576,1.356,1.356,0,0,1-.5-.093,1.235,1.235,0,0,1-.483-.358,2.4,2.4,0,0,1-.374-.778,5.568,5.568,0,0,1-.156-1.354,16.285,16.285,0,0,1,.326-3,26.314,26.314,0,0,1,.95-3.457,29.2,29.2,0,0,1,1.494-3.534,22.114,22.114,0,0,1,1.962-3.238q.047,1.027.046,2.009Zm7.581-22.312q.059-.229.14-.451c.063-.171.125-.343.2-.514.077-.155.156-.3.218-.4s.124-.172.172-.172.093.063.124.187a1.98,1.98,0,0,1,.094.437c.015.172.031.343.047.514s.016.312.016.421Zm16.331,6.228a5.363,5.363,0,0,1-.077-.871,7.668,7.668,0,0,1,.125-1.339,4.959,4.959,0,0,1,.4-1.23,2.652,2.652,0,0,1,.716-.887,1.659,1.659,0,0,1,1.059-.343,1.085,1.085,0,0,1,.81.358,1.4,1.4,0,0,1,.342,1.042,3.385,3.385,0,0,1-.233,1.229,4.618,4.618,0,0,1-.638,1.152,6.128,6.128,0,0,1-1,1.013.791.791,0,1,1-1.51-.125Zm12.05,0a5.282,5.282,0,0,1-.077-.871,7.62,7.62,0,0,1,.124-1.339,4.979,4.979,0,0,1,.4-1.23,2.663,2.663,0,0,1,.717-.887,1.638,1.638,0,0,1,1.059-.344,1.088,1.088,0,0,1,.809.359,1.4,1.4,0,0,1,.343,1.042,3.375,3.375,0,0,1-.233,1.229,4.618,4.618,0,0,1-.638,1.152,6.138,6.138,0,0,1-1,1.013.791.791,0,1,1-1.51-.125Zm34.778,11.3a19.362,19.362,0,0,1,1.323,2.9,18.43,18.43,0,0,1,.809,3.021,16.768,16.768,0,0,1,.265,2.927c0,.358-.031.842-.093,1.433a10.921,10.921,0,0,1-.327,1.729,4.659,4.659,0,0,1-.685,1.464,1.341,1.341,0,0,1-1.137.623c-.513,0-.887-.343-1.167-1.013a10.459,10.459,0,0,1-.592-2.678,33.28,33.28,0,0,1-.218-3.736c-.016-1.386-.016-2.787-.016-4.2,0-.686,0-1.448.016-2.272s.016-1.729.016-2.679a13.076,13.076,0,0,1,1.806,2.491Zm18.588-16.566c-.078-.826-.14-1.682-.187-2.585s-.062-1.837-.062-2.8c0-1.277.046-2.569.124-3.862s.2-2.537.343-3.721.327-2.3.545-3.331a22.9,22.9,0,0,1,.716-2.694,7.656,7.656,0,0,1,.841-1.806c.3-.436.607-.669.934-.669q.748,0,1.167,1.168a12.454,12.454,0,0,1,.436,3.859,20.607,20.607,0,0,1-.4,4.034,40.576,40.576,0,0,1-1.074,4.25c-.452,1.433-.966,2.834-1.541,4.219s-1.182,2.71-1.837,3.938Zm11.66.2c-.078-.826-.14-1.682-.187-2.586s-.062-1.836-.062-2.8c0-1.276.047-2.568.125-3.86s.2-2.538.342-3.722.327-2.3.544-3.331a23.244,23.244,0,0,1,.716-2.694,7.688,7.688,0,0,1,.84-1.8c.3-.436.608-.67.935-.67q.748,0,1.167,1.168a12.461,12.461,0,0,1,.436,3.86,20.568,20.568,0,0,1-.4,4.033,40.452,40.452,0,0,1-1.074,4.25c-.451,1.434-.965,2.834-1.542,4.22-.576,1.4-1.2,2.71-1.837,3.939Z" transform="translate(-4005.959 -5378.91)" fill="#383a37"/>
  <path id="Path_80" data-name="Path 80" d="M4592,5488.124a2.016,2.016,0,0,0,2.024-2.008v-.016a1.967,1.967,0,0,0-.591-1.433,2.226,2.226,0,0,0-.639-.436,2.012,2.012,0,0,0-2.647,1.059,1.791,1.791,0,0,0-.155.81,2.016,2.016,0,0,0,2.008,2.024Zm-.529-2.569a.7.7,0,0,1,.529-.233.811.811,0,0,1,.778.778.671.671,0,0,1-.233.529.778.778,0,0,1-.545.218.763.763,0,0,1-.762-.763A.866.866,0,0,1,4591.474,5485.555Z" transform="translate(-4465.37 -5467.695)" fill="#383a37"/>
  <g id="Group_23" data-name="Group 23" transform="translate(0 8.349)">
    <path id="Path_81" data-name="Path 81" d="M3806.348,5432.53a16.839,16.839,0,1,0,11.916,4.932A16.847,16.847,0,0,0,3806.348,5432.53Zm6.431,19.292a10.225,10.225,0,0,1-5.449,6.664,11.909,11.909,0,0,1-.826,3.083.847.847,0,0,1-1.542-.7,9.566,9.566,0,0,0,.685-2.538c-3.986-3.534-5.932-7.24-5.776-11.008.25-5.746,5.294-9.42,5.512-9.577h0a.854.854,0,0,1,1.105.094c5.013,5.2,7.132,9.9,6.29,13.983Z" transform="translate(-3789.5 -5432.53)" fill="#6da340"/>
    <path id="Path_82" data-name="Path 82" d="M3866.959,5485.648c-.125,2.943,1.323,5.9,4.281,8.813.047-1.075.031-2.087,0-2.865a.844.844,0,0,1,.763-.888h0a.841.841,0,0,1,.919.763v.032c.031.747.062,1.9,0,3.161a8.131,8.131,0,0,0,3.6-4.936c.7-3.364-1.09-7.365-5.325-11.9C3869.949,5478.89,3867.115,5481.787,3866.959,5485.648Z" transform="translate(-3854.892 -5470.778)" fill="#6da340"/>
  </g>
</svg>
