<svg xmlns="http://www.w3.org/2000/svg" width="38.933" height="34.067" viewBox="0 0 38.933 34.067">
  <path id="bars-solid" d="M1.39,66.257H37.543a1.39,1.39,0,0,0,1.39-1.39V61.39A1.39,1.39,0,0,0,37.543,60H1.39A1.39,1.39,0,0,0,0,61.39v3.476A1.39,1.39,0,0,0,1.39,66.257Zm0,13.9H37.543a1.39,1.39,0,0,0,1.39-1.39V75.3a1.39,1.39,0,0,0-1.39-1.39H1.39A1.39,1.39,0,0,0,0,75.3v3.476A1.39,1.39,0,0,0,1.39,80.162Zm0,13.9H37.543a1.39,1.39,0,0,0,1.39-1.39V89.2a1.39,1.39,0,0,0-1.39-1.39H1.39A1.39,1.39,0,0,0,0,89.2v3.476A1.39,1.39,0,0,0,1.39,94.067Z" transform="translate(0 -60)" fill="#002b7f"/>
</svg>
