<svg xmlns="http://www.w3.org/2000/svg" xmlns:xlink="http://www.w3.org/1999/xlink" width="1920" height="1080" viewBox="0 0 1920 1080">
  <defs>
    <linearGradient id="linear-gradient" x1="1.185" y1="0.178" x2="-0.175" y2="0.796" gradientUnits="objectBoundingBox">
      <stop offset="0" stop-color="#00b09b"/>
      <stop offset="1" stop-color="#96c93d"/>
    </linearGradient>
    <clipPath id="clip-Web_1920_7">
      <rect width="1920" height="1080"/>
    </clipPath>
  </defs>
  <g id="Web_1920_7" data-name="Web 1920 – 7" clip-path="url(#clip-Web_1920_7)">
    <rect width="1920" height="1080" fill="#0a2239"/>
    <rect id="Rectangle_140" data-name="Rectangle 140" width="140" height="140" transform="translate(1780)" fill="#fa7268"/>
    <g id="Group_87" data-name="Group 87" transform="translate(1.5 -9.866)">
      <g id="Group_86" data-name="Group 86" transform="translate(1837.5 69.883)">
        <path id="Stroke_5736" data-name="Stroke 5736" d="M7.334,0,1.068,3.709A2.162,2.162,0,0,0,0,5.569V8.678H22V5.569a2.162,2.162,0,0,0-1.068-1.86L14.661,0" transform="translate(0 15.322)" fill="none" stroke="#0a2239" stroke-linecap="round" stroke-linejoin="round" stroke-miterlimit="10" stroke-width="3.5"/>
        <path id="Stroke_5740" data-name="Stroke 5740" d="M6.663,16.265h0A6.585,6.585,0,0,1,0,9.759V6.506A6.585,6.585,0,0,1,6.663,0a6.585,6.585,0,0,1,6.663,6.506V9.759a6.585,6.585,0,0,1-6.663,6.506Z" transform="translate(4.337 0)" fill="none" stroke="#0a2239" stroke-linecap="round" stroke-linejoin="round" stroke-miterlimit="10" stroke-width="3.5"/>
      </g>
    </g>
    <line id="Line_68" data-name="Line 68" x2="1920" transform="translate(0 140)" fill="none" stroke="#fff" stroke-width="1"/>
    <path id="Path_96" data-name="Path 96" d="M449.854,475.273V448.638h4.019v26.634Zm15.758,0h-4.019V448.638h3.966V450.5a17.22,17.22,0,0,1,8.308-2.4q5.359,0,7.209,2.877t1.849,10.227v14.063h-3.966V461.317q0-5.54-1.1-7.591t-4.689-2.05a14.083,14.083,0,0,0-3.618.506,18.135,18.135,0,0,0-2.921.986l-1.019.479ZM499.861,448a38.578,38.578,0,0,1,7.129.852l1.447.32-.215,5.647q-4.234-.426-6.27-.427-3.7,0-4.9,1.571t-1.206,5.94q0,4.369,1.206,5.993T502,469.52l6.217-.426.215,5.7a49.65,49.65,0,0,1-8.737,1.119q-5.95,0-8.549-3.329t-2.6-10.68q0-7.352,2.68-10.627T499.861,448Zm14.2,27.273V437.985h7.182v37.288Zm34.678-18.324v11.08a4.222,4.222,0,0,0,.429,1.784,1.991,1.991,0,0,0,1.34.719l-.214,5.38a20.438,20.438,0,0,1-4.368-.373,9.853,9.853,0,0,1-3.3-1.492,17.934,17.934,0,0,1-7.879,1.864q-8.309,0-8.308-8.736,0-4.261,2.305-6.046t7.075-2.1l5.735-.426v-1.651a2.808,2.808,0,0,0-.75-2.264,3.813,3.813,0,0,0-2.412-.612l-10.077.426-.214-4.954A41.98,41.98,0,0,1,539.014,448q5.173,0,7.45,2.13T548.743,456.948Zm-12.06,7.031a2.9,2.9,0,0,0-3,3.2q0,2.931,2.626,2.93a17.473,17.473,0,0,0,4.449-.639l.8-.213v-5.7Zm38.162-8.683a85.938,85.938,0,0,0-9.3-.852,7.723,7.723,0,0,0-3.431.479,1.651,1.651,0,0,0-.777,1.518,1.446,1.446,0,0,0,1.045,1.438,41.074,41.074,0,0,0,5.359,1.172q4.315.773,6.138,2.53t1.823,5.7q0,8.63-10.774,8.629a47.023,47.023,0,0,1-8.576-.959l-1.715-.319.214-5.967a85.91,85.91,0,0,0,9.246.853,8.349,8.349,0,0,0,3.538-.506,1.63,1.63,0,0,0,.938-1.518,1.572,1.572,0,0,0-.991-1.492,25.766,25.766,0,0,0-5.146-1.172,13.307,13.307,0,0,1-6.191-2.344q-2.037-1.651-2.037-5.886a7.47,7.47,0,0,1,2.895-6.393,12.136,12.136,0,0,1,7.45-2.157,50.366,50.366,0,0,1,8.629,1.012l1.769.319Zm25.3,0a85.934,85.934,0,0,0-9.3-.852,7.724,7.724,0,0,0-3.431.479,1.652,1.652,0,0,0-.777,1.518,1.446,1.446,0,0,0,1.045,1.438,41.081,41.081,0,0,0,5.359,1.172q4.315.773,6.137,2.53t1.823,5.7q0,8.63-10.774,8.629a47.019,47.019,0,0,1-8.576-.959l-1.715-.319.214-5.967a85.906,85.906,0,0,0,9.246.853,8.349,8.349,0,0,0,3.538-.506,1.629,1.629,0,0,0,.938-1.518A1.572,1.572,0,0,0,592.88,466a25.774,25.774,0,0,0-5.146-1.172,13.307,13.307,0,0,1-6.191-2.344q-2.037-1.651-2.037-5.886a7.47,7.47,0,0,1,2.895-6.393,12.136,12.136,0,0,1,7.45-2.157,50.363,50.363,0,0,1,8.629,1.012l1.769.319Zm-181.49-14.4A17.543,17.543,0,1,0,436.3,458.442,17.6,17.6,0,0,0,418.652,440.9ZM415.3,468.315l-7.826-7.777,3.354-3.333,4.472,4.444,11.179-11.111,3.354,3.333Z" transform="translate(-301 -389.985)" fill="#fff"/>
    <line id="Line_69" data-name="Line 69" y2="140" transform="translate(400)" fill="none" stroke="#fff" stroke-width="1"/>
    <line id="Line_70" data-name="Line 70" y2="140" transform="translate(640)" fill="none" stroke="#fff" stroke-width="1"/>
    <line id="Line_71" data-name="Line 71" y2="140" transform="translate(880)" fill="none" stroke="#fff" stroke-width="1"/>
    <line id="Line_72" data-name="Line 72" y2="140" transform="translate(1120)" fill="none" stroke="#fff" stroke-width="1"/>
    <text id="about" transform="translate(477 82)" fill="#fff" font-size="30" font-family="Quicksand-Bold, Quicksand" font-weight="700"><tspan x="0" y="0">about</tspan></text>
    <text id="f.a.q" transform="translate(728 82)" fill="#fff" font-size="30" font-family="Quicksand-Bold, Quicksand" font-weight="700"><tspan x="0" y="0">f.a.q</tspan></text>
    <text id="contact" transform="translate(945 82)" fill="#fff" font-size="30" font-family="Quicksand-Bold, Quicksand" font-weight="700"><tspan x="0" y="0">contact</tspan></text>
    <rect id="Rectangle_156" data-name="Rectangle 156" width="1920" height="140" transform="translate(0 940)" fill="#fff"/>
    <rect id="Rectangle_157" data-name="Rectangle 157" width="70" height="70" transform="translate(1580 975)" fill="#0a2239"/>
    <rect id="Rectangle_158" data-name="Rectangle 158" width="70" height="70" transform="translate(1665 975)" fill="#0a2239"/>
    <rect id="Rectangle_159" data-name="Rectangle 159" width="70" height="70" transform="translate(1750 975)" fill="#0a2239"/>
    <path id="Path_140" data-name="Path 140" d="M323.769,231.872V209.065h7.666l1.148-8.889h-8.814V194.5c0-2.573.715-4.327,4.411-4.327l4.713,0v-7.95a63.316,63.316,0,0,0-6.868-.35c-6.795,0-11.447,4.142-11.447,11.749v6.555h-7.685v8.889h7.685v22.807Z" transform="translate(1387.107 813.128)" fill="#fff"/>
    <g id="Group_109" data-name="Group 109" transform="translate(1766 995)">
      <path id="Path_141" data-name="Path 141" d="M527.388,203.135Z" transform="translate(-488.804 -202.598)" fill="#fff"/>
      <path id="Path_142" data-name="Path 142" d="M480.591,206.825a5.112,5.112,0,0,1-1.552.213l.028-.172c.808-.679,2.846-2.759,3.114-3.732.117-.421-.02-.566-.021-.579l-2.6,1.158-2.177,1.03h0a8.491,8.491,0,0,0-6.323-2.732c-4.527,0-8.2,3.362-8.2,7.511a11.7,11.7,0,0,0,.335,2.835c0,.217.008-.218,0,0a24.7,24.7,0,0,1-9.978-3.106c-6.564-3.487-6.975-5.9-6.975-5.9-1.031,1.148-1.563,4.948-.518,7.929a9.742,9.742,0,0,0,2.969,3.619h0a6.7,6.7,0,0,1-2.106-.362,4.6,4.6,0,0,1-1.485-.76c-.639,1.638.645,4.563,2.866,6.661a11.547,11.547,0,0,0,3.658,1.991l-3.693.109c-.208,3.764,7.529,6,7.529,6h0a12.292,12.292,0,0,1-7.718,2.942,14.107,14.107,0,0,1-4.215-.648,19.547,19.547,0,0,0,13.722,5.155c13.816-.761,21.614-13.213,21.985-25.441l.017.025a9.8,9.8,0,0,0,2.032-1.79,14.973,14.973,0,0,0,2.244-3.149S481.459,206.574,480.591,206.825Z" transform="translate(-443.528 -202.011)" fill="#fff"/>
      <path id="Path_143" data-name="Path 143" d="M527.388,203.135c.009.228,0,.022,0,0Z" transform="translate(-488.804 -202.599)" fill="#fff"/>
    </g>
    <g id="Group_113" data-name="Group 113" transform="translate(1593 989)">
      <g id="Group_110" data-name="Group 110" transform="translate(0 0)">
        <path id="Path_144" data-name="Path 144" d="M128.793,221.3h-16.86a13.587,13.587,0,0,1-13.57-13.571V192.872a13.585,13.585,0,0,1,13.57-13.57h16.86a13.585,13.585,0,0,1,13.57,13.57v14.858A13.587,13.587,0,0,1,128.793,221.3Zm-16.86-38.985a10.567,10.567,0,0,0-10.555,10.555v14.858a10.567,10.567,0,0,0,10.555,10.555h16.86a10.566,10.566,0,0,0,10.554-10.555V192.872a10.567,10.567,0,0,0-10.554-10.555Z" transform="translate(-98.363 -179.302)" fill="#fff"/>
      </g>
      <g id="Group_111" data-name="Group 111" transform="translate(9.875 8.874)">
        <path id="Path_145" data-name="Path 145" d="M133.745,224.461a12.125,12.125,0,1,1,12.125-12.125A12.139,12.139,0,0,1,133.745,224.461Zm0-21.224a9.1,9.1,0,1,0,9.1,9.1A9.108,9.108,0,0,0,133.745,203.237Z" transform="translate(-121.62 -200.21)" fill="#fff"/>
      </g>
      <g id="Group_112" data-name="Group 112" transform="translate(31.373 6.78)">
        <path id="Path_146" data-name="Path 146" d="M176.978,197.72a2.516,2.516,0,1,1-2.516-2.516A2.515,2.515,0,0,1,176.978,197.72Z" transform="translate(-171.946 -195.204)" fill="#fff"/>
      </g>
    </g>
    <text id="_2019_InClass" data-name="© 2019 InClass" transform="translate(100 1021)" fill="#0a2239" font-size="30" font-family="Quicksand-Regular, Quicksand"><tspan x="0" y="0">© 2019 InClass</tspan></text>
    <path id="Path_154" data-name="Path 154" d="M32.2-63.4q-3.4,0-4.8,1.95A7.135,7.135,0,0,0,26-57.2v4.7h9.1a5.52,5.52,0,0,1,4,1.55A5.262,5.262,0,0,1,40.7-47a5.262,5.262,0,0,1-1.6,3.95,5.52,5.52,0,0,1-4,1.55H26V-6.1a6,6,0,0,1-1.7,4.35A5.741,5.741,0,0,1,20,0a5.741,5.741,0,0,1-4.3-1.75A6,6,0,0,1,14-6.1V-41.5H8.6a5.52,5.52,0,0,1-4-1.55A5.262,5.262,0,0,1,3-47a5.262,5.262,0,0,1,1.6-3.95,5.52,5.52,0,0,1,4-1.55H14v-4.6a15.753,15.753,0,0,1,5.15-12.2Q24.3-74,34-74a13.266,13.266,0,0,1,6.45,1.5,4.912,4.912,0,0,1,2.75,4.6A5.486,5.486,0,0,1,41.8-64a4.478,4.478,0,0,1-3.4,1.5,5.874,5.874,0,0,1-1.05-.1q-.55-.1-1.15-.2A17.09,17.09,0,0,0,32.2-63.4ZM53.5-.1a6.023,6.023,0,0,1-4.45-1.55A6.023,6.023,0,0,1,47.5-6.1V-7.8a6.023,6.023,0,0,1,1.55-4.45A6.023,6.023,0,0,1,53.5-13.8h1.3a6.023,6.023,0,0,1,4.45,1.55A6.023,6.023,0,0,1,60.8-7.8v1.7a6.023,6.023,0,0,1-1.55,4.45A6.023,6.023,0,0,1,54.8-.1Zm62.9-54.4a5.828,5.828,0,0,1,4.3,1.7,5.954,5.954,0,0,1,1.7,4.4V-6.1a6,6,0,0,1-1.7,4.35A5.741,5.741,0,0,1,116.4,0a5.662,5.662,0,0,1-4.25-1.7A6.289,6.289,0,0,1,110.4-6a20.52,20.52,0,0,1-6.75,4.95A20.347,20.347,0,0,1,94.7,1,22.862,22.862,0,0,1,82.2-2.55a24.889,24.889,0,0,1-8.85-9.85A30.737,30.737,0,0,1,70.1-26.7a31.443,31.443,0,0,1,3.2-14.35,24.587,24.587,0,0,1,8.75-9.9A22.272,22.272,0,0,1,94.3-54.5a23.163,23.163,0,0,1,9,1.75,23.635,23.635,0,0,1,7.1,4.45v-.1a6,6,0,0,1,1.7-4.35A5.741,5.741,0,0,1,116.4-54.5ZM96.2-10a13.353,13.353,0,0,0,10.6-4.75,17.637,17.637,0,0,0,4.1-11.95,17.83,17.83,0,0,0-4.1-12,13.294,13.294,0,0,0-10.6-4.8,13.188,13.188,0,0,0-10.5,4.8,17.83,17.83,0,0,0-4.1,12,17.774,17.774,0,0,0,4.05,11.95A13.206,13.206,0,0,0,96.2-10ZM140.7-.1a6.023,6.023,0,0,1-4.45-1.55A6.023,6.023,0,0,1,134.7-6.1V-7.8a6.023,6.023,0,0,1,1.55-4.45,6.023,6.023,0,0,1,4.45-1.55H142a6.023,6.023,0,0,1,4.45,1.55A6.023,6.023,0,0,1,148-7.8v1.7a6.023,6.023,0,0,1-1.55,4.45A6.023,6.023,0,0,1,142-.1Zm62.9-53.4a5.828,5.828,0,0,1,4.3,1.7,5.954,5.954,0,0,1,1.7,4.4V13.9a6,6,0,0,1-1.7,4.35,6.158,6.158,0,0,1-8.6,0,6,6,0,0,1-1.7-4.35V-5.9a21.32,21.32,0,0,1-6.75,4.85A20.347,20.347,0,0,1,181.9,1a22.862,22.862,0,0,1-12.5-3.55,24.889,24.889,0,0,1-8.85-9.85,30.737,30.737,0,0,1-3.25-14.3,31.443,31.443,0,0,1,3.2-14.35,24.587,24.587,0,0,1,8.75-9.9A22.272,22.272,0,0,1,181.5-54.5a22.856,22.856,0,0,1,9.1,1.8,23.019,23.019,0,0,1,7,4.5,6.018,6.018,0,0,1,1.95-3.8A5.8,5.8,0,0,1,203.6-53.5ZM183.4-10A13.353,13.353,0,0,0,194-14.75a17.637,17.637,0,0,0,4.1-11.95,17.83,17.83,0,0,0-4.1-12,13.294,13.294,0,0,0-10.6-4.8,13.188,13.188,0,0,0-10.5,4.8,17.83,17.83,0,0,0-4.1,12,17.774,17.774,0,0,0,4.05,11.95A13.206,13.206,0,0,0,183.4-10Z" transform="translate(852 300)" fill="url(#linear-gradient)"/>
    <g id="Rectangle_181" data-name="Rectangle 181" transform="translate(620 375)" fill="none" stroke="#fff" stroke-width="1">
      <rect width="372" height="78" stroke="none"/>
      <rect x="0.5" y="0.5" width="371" height="77" fill="none"/>
    </g>
    <rect id="Rectangle_180" data-name="Rectangle 180" width="400" height="78" transform="translate(200 375)" fill="#f7f7f7"/>
    <text id="instructor_web_app" data-name="instructor web app" transform="translate(293 424)" fill="#0a2239" font-size="30" font-family="Quicksand-Bold, Quicksand" font-weight="700"><tspan x="0" y="0">instructor web app</tspan></text>
    <text id="Lorem_ipsum_dolor_sit_amet_consectetur_adipiscing_elit_" data-name="Lorem ipsum dolor sit amet, consectetur adipiscing elit?" transform="translate(200 533)" fill="#fa7268" font-size="30" font-family="Quicksand-Medium, Quicksand" font-weight="500"><tspan x="0" y="0">Lorem ipsum dolor sit amet, consectetur adipiscing elit?</tspan></text>
    <text id="Quam_nulla_porttitor_massa_id_" data-name="Quam nulla porttitor massa id?" transform="translate(200 687)" fill="#fa7268" font-size="30" font-family="Quicksand-Medium, Quicksand" font-weight="500"><tspan x="0" y="0">Quam nulla porttitor massa id?</tspan></text>
    <text id="Sed_do_eiusmod_tempor_incididunt_ut_labore_et_dolore_magna_aliqua._At_elementum_eu_facilisis_sed_odio_morbi_quis._At_erat_pellentesque_adipiscing_commodo_elit." data-name="Sed do eiusmod tempor incididunt ut labore et dolore magna aliqua. At elementum eu facilisis sed odio
morbi quis. At erat pellentesque adipiscing commodo elit." transform="translate(200 581)" fill="#fff" font-size="30" font-family="Quicksand-Regular, Quicksand"><tspan x="0" y="0">Sed do eiusmod tempor incididunt ut labore et dolore magna aliqua. At elementum eu facilisis sed odio</tspan><tspan x="0" y="38">morbi quis. At erat pellentesque adipiscing commodo elit.</tspan></text>
    <text id="In_iaculis_nunc_sed_augue._Placerat_duis_ultricies_lacus_sed_turpis._Erat_pellentesque_adipiscing_commodo_elit_at_imperdiet_dui_accumsan_sit._Sit_amet_consectetur_adipiscing_elit_pellentesque._A_erat_nam_at_lectus._Id_aliquet_lectus_proin_nibh." data-name="In iaculis nunc sed augue. Placerat duis ultricies lacus sed turpis. Erat pellentesque adipiscing commodo
elit at imperdiet dui accumsan sit. Sit amet consectetur adipiscing elit pellentesque. A erat nam at lectus.
Id aliquet lectus proin nibh." transform="translate(200 735)" fill="#fff" font-size="30" font-family="Quicksand-Regular, Quicksand"><tspan x="0" y="0">In iaculis nunc sed augue. Placerat duis ultricies lacus sed turpis. Erat pellentesque adipiscing commodo</tspan><tspan x="0" y="38">elit at imperdiet dui accumsan sit. Sit amet consectetur adipiscing elit pellentesque. A erat nam at lectus.</tspan><tspan x="0" y="76">Id aliquet lectus proin nibh.</tspan></text>
    <text id="student_mobile_app" data-name="student mobile app" transform="translate(690 424)" fill="#fff" font-size="30" font-family="Quicksand-Bold, Quicksand" font-weight="700"><tspan x="0" y="0">student mobile app</tspan></text>
    <g id="Group_116" data-name="Group 116" transform="translate(-133 -75)">
      <path id="Stroke_668" data-name="Stroke 668" d="M0,30H33V0H0Z" transform="translate(363 474)" fill="none" stroke="#0a2239" stroke-linecap="round" stroke-linejoin="round" stroke-miterlimit="10" stroke-width="3"/>
      <path id="Stroke_669" data-name="Stroke 669" d="M0,0H32" transform="translate(363.49 481.056)" fill="none" stroke="#0a2239" stroke-linecap="round" stroke-linejoin="round" stroke-miterlimit="10" stroke-width="3"/>
      <path id="Stroke_672" data-name="Stroke 672" d="M0,0V6.175" transform="translate(370.99 474.881)" fill="none" stroke="#0a2239" stroke-linecap="round" stroke-linejoin="round" stroke-miterlimit="10" stroke-width="3"/>
    </g>
    <g id="Group_117" data-name="Group 117" transform="translate(120.5 -1098.883)">
      <path id="Stroke_4563" data-name="Stroke 4563" d="M17.143,30H2.857A2.794,2.794,0,0,1,0,27.273V2.727A2.794,2.794,0,0,1,2.857,0H17.143A2.794,2.794,0,0,1,20,2.727V27.273A2.794,2.794,0,0,1,17.143,30Z" transform="translate(529.5 1497.882)" fill="none" stroke="#fff" stroke-linecap="round" stroke-linejoin="round" stroke-miterlimit="10" stroke-width="3"/>
      <path id="Stroke_4564" data-name="Stroke 4564" d="M0,1.38a1.38,1.38,0,1,1,1.38,1.38A1.381,1.381,0,0,1,0,1.38Z" transform="translate(538.12 1520.683)" fill="#fff" stroke="#fff" stroke-linecap="round" stroke-linejoin="round" stroke-miterlimit="10" stroke-width="3"/>
      <path id="Stroke_4565" data-name="Stroke 4565" d="M0,0H20" transform="translate(529.5 1502.527)" fill="none" stroke="#fff" stroke-linecap="round" stroke-linejoin="round" stroke-miterlimit="10" stroke-width="3"/>
      <path id="Stroke_4566" data-name="Stroke 4566" d="M0,0H20" transform="translate(529.5 1516.002)" fill="none" stroke="#fff" stroke-linecap="round" stroke-linejoin="round" stroke-miterlimit="10" stroke-width="3"/>
    </g>
  </g>
</svg>
