<svg xmlns="http://www.w3.org/2000/svg" xmlns:xlink="http://www.w3.org/1999/xlink" width="1920" height="1080" viewBox="0 0 1920 1080">
  <defs>
    <linearGradient id="linear-gradient" x1="1.036" x2="-0.04" y2="1" gradientUnits="objectBoundingBox">
      <stop offset="0" stop-color="#00b09b"/>
      <stop offset="1" stop-color="#96c93d"/>
    </linearGradient>
    <clipPath id="clip-Web_1920_5">
      <rect width="1920" height="1080"/>
    </clipPath>
  </defs>
  <g id="Web_1920_5" data-name="Web 1920 – 5" clip-path="url(#clip-Web_1920_5)">
    <rect width="1920" height="1080" fill="#0a2239"/>
    <rect id="Rectangle_140" data-name="Rectangle 140" width="140" height="140" transform="translate(1780)" fill="#fa7268"/>
    <g id="Group_87" data-name="Group 87" transform="translate(1.5 -9.866)">
      <g id="Group_86" data-name="Group 86" transform="translate(1837.5 69.883)">
        <path id="Stroke_5736" data-name="Stroke 5736" d="M7.334,0,1.068,3.709A2.162,2.162,0,0,0,0,5.569V8.678H22V5.569a2.162,2.162,0,0,0-1.068-1.86L14.661,0" transform="translate(0 15.322)" fill="none" stroke="#0a2239" stroke-linecap="round" stroke-linejoin="round" stroke-miterlimit="10" stroke-width="3.5"/>
        <path id="Stroke_5740" data-name="Stroke 5740" d="M6.663,16.265h0A6.585,6.585,0,0,1,0,9.759V6.506A6.585,6.585,0,0,1,6.663,0a6.585,6.585,0,0,1,6.663,6.506V9.759a6.585,6.585,0,0,1-6.663,6.506Z" transform="translate(4.337 0)" fill="none" stroke="#0a2239" stroke-linecap="round" stroke-linejoin="round" stroke-miterlimit="10" stroke-width="3.5"/>
      </g>
    </g>
    <line id="Line_68" data-name="Line 68" x2="1920" transform="translate(0 140)" fill="none" stroke="#fff" stroke-width="1"/>
    <path id="Path_96" data-name="Path 96" d="M449.854,475.273V448.638h4.019v26.634Zm15.758,0h-4.019V448.638h3.966V450.5a17.22,17.22,0,0,1,8.308-2.4q5.359,0,7.209,2.877t1.849,10.227v14.063h-3.966V461.317q0-5.54-1.1-7.591t-4.689-2.05a14.083,14.083,0,0,0-3.618.506,18.135,18.135,0,0,0-2.921.986l-1.019.479ZM499.861,448a38.578,38.578,0,0,1,7.129.852l1.447.32-.215,5.647q-4.234-.426-6.27-.427-3.7,0-4.9,1.571t-1.206,5.94q0,4.369,1.206,5.993T502,469.52l6.217-.426.215,5.7a49.65,49.65,0,0,1-8.737,1.119q-5.95,0-8.549-3.329t-2.6-10.68q0-7.352,2.68-10.627T499.861,448Zm14.2,27.273V437.985h7.182v37.288Zm34.678-18.324v11.08a4.222,4.222,0,0,0,.429,1.784,1.991,1.991,0,0,0,1.34.719l-.214,5.38a20.438,20.438,0,0,1-4.368-.373,9.853,9.853,0,0,1-3.3-1.492,17.934,17.934,0,0,1-7.879,1.864q-8.309,0-8.308-8.736,0-4.261,2.305-6.046t7.075-2.1l5.735-.426v-1.651a2.808,2.808,0,0,0-.75-2.264,3.813,3.813,0,0,0-2.412-.612l-10.077.426-.214-4.954A41.98,41.98,0,0,1,539.014,448q5.173,0,7.45,2.13T548.743,456.948Zm-12.06,7.031a2.9,2.9,0,0,0-3,3.2q0,2.931,2.626,2.93a17.473,17.473,0,0,0,4.449-.639l.8-.213v-5.7Zm38.162-8.683a85.938,85.938,0,0,0-9.3-.852,7.723,7.723,0,0,0-3.431.479,1.651,1.651,0,0,0-.777,1.518,1.446,1.446,0,0,0,1.045,1.438,41.074,41.074,0,0,0,5.359,1.172q4.315.773,6.138,2.53t1.823,5.7q0,8.63-10.774,8.629a47.023,47.023,0,0,1-8.576-.959l-1.715-.319.214-5.967a85.91,85.91,0,0,0,9.246.853,8.349,8.349,0,0,0,3.538-.506,1.63,1.63,0,0,0,.938-1.518,1.572,1.572,0,0,0-.991-1.492,25.766,25.766,0,0,0-5.146-1.172,13.307,13.307,0,0,1-6.191-2.344q-2.037-1.651-2.037-5.886a7.47,7.47,0,0,1,2.895-6.393,12.136,12.136,0,0,1,7.45-2.157,50.366,50.366,0,0,1,8.629,1.012l1.769.319Zm25.3,0a85.934,85.934,0,0,0-9.3-.852,7.724,7.724,0,0,0-3.431.479,1.652,1.652,0,0,0-.777,1.518,1.446,1.446,0,0,0,1.045,1.438,41.081,41.081,0,0,0,5.359,1.172q4.315.773,6.137,2.53t1.823,5.7q0,8.63-10.774,8.629a47.019,47.019,0,0,1-8.576-.959l-1.715-.319.214-5.967a85.906,85.906,0,0,0,9.246.853,8.349,8.349,0,0,0,3.538-.506,1.629,1.629,0,0,0,.938-1.518A1.572,1.572,0,0,0,592.88,466a25.774,25.774,0,0,0-5.146-1.172,13.307,13.307,0,0,1-6.191-2.344q-2.037-1.651-2.037-5.886a7.47,7.47,0,0,1,2.895-6.393,12.136,12.136,0,0,1,7.45-2.157,50.363,50.363,0,0,1,8.629,1.012l1.769.319Zm-181.49-14.4A17.543,17.543,0,1,0,436.3,458.442,17.6,17.6,0,0,0,418.652,440.9ZM415.3,468.315l-7.826-7.777,3.354-3.333,4.472,4.444,11.179-11.111,3.354,3.333Z" transform="translate(-301 -389.985)" fill="#fff"/>
    <line id="Line_69" data-name="Line 69" y2="140" transform="translate(400)" fill="none" stroke="#fff" stroke-width="1"/>
    <line id="Line_70" data-name="Line 70" y2="140" transform="translate(640)" fill="none" stroke="#fff" stroke-width="1"/>
    <line id="Line_71" data-name="Line 71" y2="140" transform="translate(880)" fill="none" stroke="#fff" stroke-width="1"/>
    <line id="Line_72" data-name="Line 72" y2="140" transform="translate(1120)" fill="none" stroke="#fff" stroke-width="1"/>
    <text id="about" transform="translate(477 82)" fill="#fff" font-size="30" font-family="Quicksand-Bold, Quicksand" font-weight="700"><tspan x="0" y="0">about</tspan></text>
    <text id="f.a.q" transform="translate(728 82)" fill="#fff" font-size="30" font-family="Quicksand-Bold, Quicksand" font-weight="700"><tspan x="0" y="0">f.a.q</tspan></text>
    <text id="contact" transform="translate(945 82)" fill="#fff" font-size="30" font-family="Quicksand-Bold, Quicksand" font-weight="700"><tspan x="0" y="0">contact</tspan></text>
    <rect id="Rectangle_156" data-name="Rectangle 156" width="1920" height="140" transform="translate(0 940)" fill="#fff"/>
    <rect id="Rectangle_157" data-name="Rectangle 157" width="70" height="70" transform="translate(1580 975)" fill="#0a2239"/>
    <rect id="Rectangle_158" data-name="Rectangle 158" width="70" height="70" transform="translate(1665 975)" fill="#0a2239"/>
    <rect id="Rectangle_159" data-name="Rectangle 159" width="70" height="70" transform="translate(1750 975)" fill="#0a2239"/>
    <path id="Path_140" data-name="Path 140" d="M323.769,231.872V209.065h7.666l1.148-8.889h-8.814V194.5c0-2.573.715-4.327,4.411-4.327l4.713,0v-7.95a63.316,63.316,0,0,0-6.868-.35c-6.795,0-11.447,4.142-11.447,11.749v6.555h-7.685v8.889h7.685v22.807Z" transform="translate(1387.107 813.128)" fill="#fff"/>
    <g id="Group_109" data-name="Group 109" transform="translate(1766 995)">
      <path id="Path_141" data-name="Path 141" d="M527.388,203.135Z" transform="translate(-488.804 -202.598)" fill="#fff"/>
      <path id="Path_142" data-name="Path 142" d="M480.591,206.825a5.112,5.112,0,0,1-1.552.213l.028-.172c.808-.679,2.846-2.759,3.114-3.732.117-.421-.02-.566-.021-.579l-2.6,1.158-2.177,1.03h0a8.491,8.491,0,0,0-6.323-2.732c-4.527,0-8.2,3.362-8.2,7.511a11.7,11.7,0,0,0,.335,2.835c0,.217.008-.218,0,0a24.7,24.7,0,0,1-9.978-3.106c-6.564-3.487-6.975-5.9-6.975-5.9-1.031,1.148-1.563,4.948-.518,7.929a9.742,9.742,0,0,0,2.969,3.619h0a6.7,6.7,0,0,1-2.106-.362,4.6,4.6,0,0,1-1.485-.76c-.639,1.638.645,4.563,2.866,6.661a11.547,11.547,0,0,0,3.658,1.991l-3.693.109c-.208,3.764,7.529,6,7.529,6h0a12.292,12.292,0,0,1-7.718,2.942,14.107,14.107,0,0,1-4.215-.648,19.547,19.547,0,0,0,13.722,5.155c13.816-.761,21.614-13.213,21.985-25.441l.017.025a9.8,9.8,0,0,0,2.032-1.79,14.973,14.973,0,0,0,2.244-3.149S481.459,206.574,480.591,206.825Z" transform="translate(-443.528 -202.011)" fill="#fff"/>
      <path id="Path_143" data-name="Path 143" d="M527.388,203.135c.009.228,0,.022,0,0Z" transform="translate(-488.804 -202.599)" fill="#fff"/>
    </g>
    <g id="Group_113" data-name="Group 113" transform="translate(1593 989)">
      <g id="Group_110" data-name="Group 110" transform="translate(0 0)">
        <path id="Path_144" data-name="Path 144" d="M128.793,221.3h-16.86a13.587,13.587,0,0,1-13.57-13.571V192.872a13.585,13.585,0,0,1,13.57-13.57h16.86a13.585,13.585,0,0,1,13.57,13.57v14.858A13.587,13.587,0,0,1,128.793,221.3Zm-16.86-38.985a10.567,10.567,0,0,0-10.555,10.555v14.858a10.567,10.567,0,0,0,10.555,10.555h16.86a10.566,10.566,0,0,0,10.554-10.555V192.872a10.567,10.567,0,0,0-10.554-10.555Z" transform="translate(-98.363 -179.302)" fill="#fff"/>
      </g>
      <g id="Group_111" data-name="Group 111" transform="translate(9.875 8.874)">
        <path id="Path_145" data-name="Path 145" d="M133.745,224.461a12.125,12.125,0,1,1,12.125-12.125A12.139,12.139,0,0,1,133.745,224.461Zm0-21.224a9.1,9.1,0,1,0,9.1,9.1A9.108,9.108,0,0,0,133.745,203.237Z" transform="translate(-121.62 -200.21)" fill="#fff"/>
      </g>
      <g id="Group_112" data-name="Group 112" transform="translate(31.373 6.78)">
        <path id="Path_146" data-name="Path 146" d="M176.978,197.72a2.516,2.516,0,1,1-2.516-2.516A2.515,2.515,0,0,1,176.978,197.72Z" transform="translate(-171.946 -195.204)" fill="#fff"/>
      </g>
    </g>
    <text id="_2019_InClass" data-name="© 2019 InClass" transform="translate(100 1021)" fill="#0a2239" font-size="30" font-family="Quicksand-Regular, Quicksand"><tspan x="0" y="0">© 2019 InClass</tspan></text>
    <path id="Path_153" data-name="Path 153" d="M29.8-54.5q8.5,0,13.7,2.65t5.2,7.05a6.04,6.04,0,0,1-1.3,3.85A4.124,4.124,0,0,1,44-39.3a6.388,6.388,0,0,1-2.6-.45,9.334,9.334,0,0,1-1.95-1.2A13.912,13.912,0,0,0,37.6-42.2a12.545,12.545,0,0,0-2.95-.9,16.453,16.453,0,0,0-3.15-.4q-7.5,0-11.75,4.65T15.5-26.7a17.133,17.133,0,0,0,4.3,11.95A14.174,14.174,0,0,0,30.8-10q4.9,0,7.3-1.2a13.522,13.522,0,0,0,1.65-1.05A11.351,11.351,0,0,1,41.7-13.4a5.406,5.406,0,0,1,2.2-.4,5.064,5.064,0,0,1,3.95,1.6A5.871,5.871,0,0,1,49.3-8.1q0,2.4-2.8,4.5A21.807,21.807,0,0,1,39.1-.25,37.233,37.233,0,0,1,29.3,1,25.326,25.326,0,0,1,15.75-2.6,24.21,24.21,0,0,1,6.7-12.55,30.994,30.994,0,0,1,3.5-26.7,30.2,30.2,0,0,1,6.85-41.1a24.648,24.648,0,0,1,9.35-9.85A26.2,26.2,0,0,1,29.8-54.5Zm79.6,27.8a28.581,28.581,0,0,1-3.6,14.35A25.433,25.433,0,0,1,95.95-2.5,27.662,27.662,0,0,1,82.2,1,27.58,27.58,0,0,1,68.4-2.5a25.532,25.532,0,0,1-9.8-9.85A28.581,28.581,0,0,1,55-26.7a28.581,28.581,0,0,1,3.6-14.35,25.891,25.891,0,0,1,9.8-9.9A27.275,27.275,0,0,1,82.2-54.5a27.356,27.356,0,0,1,13.75,3.55,25.788,25.788,0,0,1,9.85,9.9A28.581,28.581,0,0,1,109.4-26.7Zm-12,0a18.327,18.327,0,0,0-2.05-8.75,15.085,15.085,0,0,0-5.5-5.95,14.427,14.427,0,0,0-7.65-2.1,14.427,14.427,0,0,0-7.65,2.1,15.084,15.084,0,0,0-5.5,5.95A18.327,18.327,0,0,0,67-26.7,18.034,18.034,0,0,0,69.05-18a15.168,15.168,0,0,0,5.5,5.9A14.427,14.427,0,0,0,82.2-10a14.427,14.427,0,0,0,7.65-2.1,15.168,15.168,0,0,0,5.5-5.9A18.034,18.034,0,0,0,97.4-26.7ZM148-54.5q10.2,0,14.1,6.05T166-31.7V-6.1a6,6,0,0,1-1.7,4.35A5.741,5.741,0,0,1,160,0a5.741,5.741,0,0,1-4.3-1.75A6,6,0,0,1,154-6.1V-31.7q0-5.5-2.3-8.65t-7.9-3.15q-5.8,0-9.1,3.35a11.547,11.547,0,0,0-3.3,8.45V-6.1a6,6,0,0,1-1.7,4.35A5.741,5.741,0,0,1,125.4,0a5.741,5.741,0,0,1-4.3-1.75,6,6,0,0,1-1.7-4.35V-47.4a6,6,0,0,1,1.7-4.35,5.741,5.741,0,0,1,4.3-1.75,5.741,5.741,0,0,1,4.3,1.75,6,6,0,0,1,1.7,4.35v1.7a24.152,24.152,0,0,1,7.05-6.2A18.27,18.27,0,0,1,148-54.5Zm56.8,43.2a3.327,3.327,0,0,1,2.55,1.35A5.286,5.286,0,0,1,208.5-6.4q0,2.7-2.95,4.55A12.256,12.256,0,0,1,198.9,0a19.386,19.386,0,0,1-10.45-2.65Q184.2-5.3,184.2-13.9V-41.5h-4.6a5.427,5.427,0,0,1-4-1.6,5.427,5.427,0,0,1-1.6-4,5.144,5.144,0,0,1,1.6-3.85,5.52,5.52,0,0,1,4-1.55h4.6v-6.4a5.905,5.905,0,0,1,1.75-4.35A5.905,5.905,0,0,1,190.3-65a5.623,5.623,0,0,1,4.2,1.75,6,6,0,0,1,1.7,4.35v6.4h7.1a5.427,5.427,0,0,1,4,1.6,5.427,5.427,0,0,1,1.6,4,5.144,5.144,0,0,1-1.6,3.85,5.52,5.52,0,0,1-4,1.55h-7.1v27.1a3.827,3.827,0,0,0,1.1,3.05,4.436,4.436,0,0,0,3,.95,8.581,8.581,0,0,0,2.2-.4A5.975,5.975,0,0,1,204.8-11.3Zm58.4-43.2a5.828,5.828,0,0,1,4.3,1.7,5.954,5.954,0,0,1,1.7,4.4V-6.1a6,6,0,0,1-1.7,4.35A5.741,5.741,0,0,1,263.2,0a5.662,5.662,0,0,1-4.25-1.7A6.289,6.289,0,0,1,257.2-6a20.52,20.52,0,0,1-6.75,4.95A20.347,20.347,0,0,1,241.5,1,22.862,22.862,0,0,1,229-2.55a24.889,24.889,0,0,1-8.85-9.85,30.737,30.737,0,0,1-3.25-14.3,31.443,31.443,0,0,1,3.2-14.35,24.587,24.587,0,0,1,8.75-9.9A22.272,22.272,0,0,1,241.1-54.5a23.163,23.163,0,0,1,9,1.75,23.635,23.635,0,0,1,7.1,4.45v-.1a6,6,0,0,1,1.7-4.35A5.741,5.741,0,0,1,263.2-54.5ZM243-10a13.353,13.353,0,0,0,10.6-4.75,17.638,17.638,0,0,0,4.1-11.95,17.829,17.829,0,0,0-4.1-12A13.294,13.294,0,0,0,243-43.5a13.188,13.188,0,0,0-10.5,4.8,17.83,17.83,0,0,0-4.1,12,17.774,17.774,0,0,0,4.05,11.95A13.206,13.206,0,0,0,243-10Zm62.5-44.5q8.5,0,13.7,2.65t5.2,7.05a6.041,6.041,0,0,1-1.3,3.85,4.124,4.124,0,0,1-3.4,1.65,6.388,6.388,0,0,1-2.6-.45,9.334,9.334,0,0,1-1.95-1.2,13.912,13.912,0,0,0-1.85-1.25,12.545,12.545,0,0,0-2.95-.9,16.453,16.453,0,0,0-3.15-.4q-7.5,0-11.75,4.65T291.2-26.7a17.133,17.133,0,0,0,4.3,11.95,14.174,14.174,0,0,0,11,4.75q4.9,0,7.3-1.2a13.523,13.523,0,0,0,1.65-1.05,11.35,11.35,0,0,1,1.95-1.15,5.406,5.406,0,0,1,2.2-.4,5.064,5.064,0,0,1,3.95,1.6A5.872,5.872,0,0,1,325-8.1q0,2.4-2.8,4.5a21.807,21.807,0,0,1-7.4,3.35A37.233,37.233,0,0,1,305,1a25.326,25.326,0,0,1-13.55-3.6,24.21,24.21,0,0,1-9.05-9.95,30.994,30.994,0,0,1-3.2-14.15,30.2,30.2,0,0,1,3.35-14.4,24.648,24.648,0,0,1,9.35-9.85A26.2,26.2,0,0,1,305.5-54.5Zm54,43.2a3.327,3.327,0,0,1,2.55,1.35A5.286,5.286,0,0,1,363.2-6.4q0,2.7-2.95,4.55A12.256,12.256,0,0,1,353.6,0a19.386,19.386,0,0,1-10.45-2.65Q338.9-5.3,338.9-13.9V-41.5h-4.6a5.427,5.427,0,0,1-4-1.6,5.427,5.427,0,0,1-1.6-4,5.144,5.144,0,0,1,1.6-3.85,5.52,5.52,0,0,1,4-1.55h4.6v-6.4a5.905,5.905,0,0,1,1.75-4.35A5.905,5.905,0,0,1,345-65a5.623,5.623,0,0,1,4.2,1.75,6,6,0,0,1,1.7,4.35v6.4H358a5.427,5.427,0,0,1,4,1.6,5.427,5.427,0,0,1,1.6,4,5.144,5.144,0,0,1-1.6,3.85,5.52,5.52,0,0,1-4,1.55h-7.1v27.1a3.827,3.827,0,0,0,1.1,3.05,4.436,4.436,0,0,0,3,.95,8.581,8.581,0,0,0,2.2-.4A5.975,5.975,0,0,1,359.5-11.3Zm82.8-42.2a5.741,5.741,0,0,1,4.3,1.75,6,6,0,0,1,1.7,4.35V-22q0,10.8-5.95,16.9T425.4,1q-11,0-16.9-6.1T402.6-22V-47.4a6,6,0,0,1,1.7-4.35,5.741,5.741,0,0,1,4.3-1.75,5.741,5.741,0,0,1,4.3,1.75,6,6,0,0,1,1.7,4.35V-22q0,6.1,2.7,9.05T425.4-10q5.5,0,8.2-2.95T436.3-22V-47.4a6,6,0,0,1,1.7-4.35A5.741,5.741,0,0,1,442.3-53.5ZM458.2-8.3a4.859,4.859,0,0,1-.9-3,5.251,5.251,0,0,1,2.6-4.4,5.292,5.292,0,0,1,2.9-.9,5.641,5.641,0,0,1,4,1.9,21.089,21.089,0,0,0,6.25,4.6,18.634,18.634,0,0,0,7.85,1.5q7.8-.3,7.8-5.9a4.781,4.781,0,0,0-2.65-4.4,37.4,37.4,0,0,0-8.25-3,71.514,71.514,0,0,1-9.45-3.2,16.72,16.72,0,0,1-6.3-4.85q-2.65-3.25-2.65-8.75a13.239,13.239,0,0,1,2.75-8.35,18.1,18.1,0,0,1,7.2-5.5,23.287,23.287,0,0,1,9.45-1.95A29.042,29.042,0,0,1,489-52.6a17.742,17.742,0,0,1,8,5.6,5.561,5.561,0,0,1,1.3,3.6,4.643,4.643,0,0,1-1.9,3.8,5.038,5.038,0,0,1-3.2,1.1,4.873,4.873,0,0,1-3.6-1.4,12.7,12.7,0,0,0-4.65-3.5,15.375,15.375,0,0,0-6.45-1.3q-7.6,0-7.6,5.5a4.707,4.707,0,0,0,1.4,3.55,9.566,9.566,0,0,0,3.55,2.1q2.15.75,6.05,1.85a66.127,66.127,0,0,1,9,3.1,15.446,15.446,0,0,1,6.1,4.9,14.039,14.039,0,0,1,2.5,8.7,13.338,13.338,0,0,1-2.9,8.55A18.357,18.357,0,0,1,489.15-.9,24.047,24.047,0,0,1,479.8,1a33.867,33.867,0,0,1-12.3-2.2A20.44,20.44,0,0,1,458.2-8.3Z" transform="translate(709 300)" fill="url(#linear-gradient)"/>
    <text id="Name" transform="translate(400 405)" fill="#fff" font-size="30" font-family="Quicksand-Bold, Quicksand" font-weight="700"><tspan x="0" y="0">Name</tspan></text>
    <text id="Email" transform="translate(400 493)" fill="#fff" font-size="30" font-family="Quicksand-Bold, Quicksand" font-weight="700"><tspan x="0" y="0">Email</tspan></text>
    <text id="Message" transform="translate(400 581)" fill="#fff" font-size="30" font-family="Quicksand-Bold, Quicksand" font-weight="700"><tspan x="0" y="0">Message</tspan></text>
    <line id="Line_50" data-name="Line 50" x2="1120" transform="translate(400 433)" fill="none" stroke="#fff" stroke-width="1"/>
    <line id="Line_51" data-name="Line 51" x2="1120" transform="translate(400 521)" fill="none" stroke="#fff" stroke-width="1"/>
    <line id="Line_82" data-name="Line 82" x2="1120" transform="translate(400 746)" fill="none" stroke="#fff" stroke-width="1"/>
    <rect id="Rectangle_101" data-name="Rectangle 101" width="300" height="84" transform="translate(1220 776)" fill="#fa7268"/>
    <text id="submit" transform="translate(1321 829)" fill="#0a2239" font-size="30" font-family="Quicksand-Bold, Quicksand" font-weight="700"><tspan x="0" y="0">submit</tspan></text>
  </g>
</svg>
