<svg xmlns="http://www.w3.org/2000/svg" width="190" height="36.19" viewBox="0 0 190 36.19">
  <path id="Path_96" data-name="Path 96" d="M447.412,473.5V448.131h3.818V473.5Zm14.97,0h-3.818V448.131h3.768v1.776a16.329,16.329,0,0,1,7.893-2.283q5.091,0,6.848,2.74t1.757,9.74V473.5h-3.768V460.206q0-5.276-1.044-7.23t-4.455-1.953a13.346,13.346,0,0,0-3.437.482,17.194,17.194,0,0,0-2.775.939l-.968.456Zm32.537-25.975a36.558,36.558,0,0,1,6.772.811l1.375.3-.2,5.378q-4.023-.406-5.957-.406-3.513,0-4.659,1.5t-1.146,5.657q0,4.161,1.146,5.707t4.71,1.547l5.906-.406.2,5.428a47.054,47.054,0,0,1-8.3,1.066q-5.653,0-8.122-3.171t-2.469-10.171q0-7,2.546-10.121T494.918,447.523ZM508.412,473.5V437.985h6.823V473.5Zm32.944-17.452V466.6a4.029,4.029,0,0,0,.407,1.7,1.89,1.89,0,0,0,1.273.685l-.2,5.124a19.37,19.37,0,0,1-4.15-.355,9.351,9.351,0,0,1-3.131-1.421,17,17,0,0,1-7.485,1.776q-7.893,0-7.893-8.32,0-4.058,2.19-5.758t6.721-2l5.448-.406v-1.573a2.678,2.678,0,0,0-.713-2.156,3.617,3.617,0,0,0-2.291-.583l-9.573.406-.2-4.718a39.783,39.783,0,0,1,10.362-1.471q4.914,0,7.078,2.029T541.355,456.045Zm-11.457,6.7a2.756,2.756,0,0,0-2.851,3.044q0,2.791,2.5,2.79a16.563,16.563,0,0,0,4.226-.608l.763-.2v-5.428Zm36.254-8.269a81.439,81.439,0,0,0-8.834-.812,7.322,7.322,0,0,0-3.259.456,1.574,1.574,0,0,0-.738,1.446,1.377,1.377,0,0,0,.993,1.37,38.944,38.944,0,0,0,5.091,1.116q4.1.736,5.831,2.41t1.731,5.429q0,8.219-10.235,8.218a44.566,44.566,0,0,1-8.147-.913l-1.629-.3.2-5.683a81.422,81.422,0,0,0,8.783.812,7.913,7.913,0,0,0,3.361-.482,1.552,1.552,0,0,0,.891-1.446,1.5,1.5,0,0,0-.942-1.421,24.42,24.42,0,0,0-4.888-1.116,12.623,12.623,0,0,1-5.881-2.232q-1.935-1.572-1.935-5.606a7.121,7.121,0,0,1,2.75-6.088,11.508,11.508,0,0,1,7.078-2.055,47.732,47.732,0,0,1,8.2.964l1.681.3Zm24.033,0a81.437,81.437,0,0,0-8.834-.812,7.321,7.321,0,0,0-3.259.456,1.574,1.574,0,0,0-.738,1.446,1.377,1.377,0,0,0,.993,1.37,38.945,38.945,0,0,0,5.091,1.116q4.1.736,5.831,2.41T591,465.888q0,8.219-10.235,8.218a44.564,44.564,0,0,1-8.147-.913l-1.629-.3.2-5.683a81.419,81.419,0,0,0,8.783.812,7.913,7.913,0,0,0,3.361-.482,1.552,1.552,0,0,0,.891-1.446,1.5,1.5,0,0,0-.942-1.421,24.427,24.427,0,0,0-4.888-1.116,12.625,12.625,0,0,1-5.881-2.232q-1.935-1.572-1.935-5.606a7.121,7.121,0,0,1,2.75-6.088,11.509,11.509,0,0,1,7.078-2.055,47.727,47.727,0,0,1,8.2.964l1.681.3ZM417.769,440.76a16.708,16.708,0,1,0,16.769,16.708A16.739,16.739,0,0,0,417.769,440.76Zm-3.186,26.11-7.434-7.407,3.186-3.174,4.248,4.232L425.2,449.94l3.186,3.175Z" transform="translate(-401 -437.985)" fill="#0a2239"/>
</svg>
