<svg xmlns="http://www.w3.org/2000/svg" width="19.828" height="19.823" viewBox="0 0 19.828 19.823">
  <path id="instagram-brands_1_" data-name="instagram-brands (1)" d="M9.841,36.654a5.082,5.082,0,1,0,5.082,5.082A5.074,5.074,0,0,0,9.841,36.654Zm0,8.387a3.3,3.3,0,1,1,3.3-3.3,3.31,3.31,0,0,1-3.3,3.3Zm6.476-8.594a1.185,1.185,0,1,1-1.185-1.185A1.183,1.183,0,0,1,16.317,36.446Zm3.366,1.2a5.866,5.866,0,0,0-1.6-4.153,5.905,5.905,0,0,0-4.153-1.6c-1.637-.093-6.542-.093-8.179,0a5.9,5.9,0,0,0-4.153,1.6,5.886,5.886,0,0,0-1.6,4.153c-.093,1.637-.093,6.542,0,8.179a5.866,5.866,0,0,0,1.6,4.153,5.913,5.913,0,0,0,4.153,1.6c1.637.093,6.542.093,8.179,0a5.866,5.866,0,0,0,4.153-1.6,5.905,5.905,0,0,0,1.6-4.153C19.776,44.187,19.776,39.286,19.683,37.649Zm-2.114,9.93a3.345,3.345,0,0,1-1.884,1.884c-1.3.518-4.4.4-5.843.4S5.3,49.977,4,49.464A3.345,3.345,0,0,1,2.113,47.58c-.518-1.3-.4-4.4-.4-5.843s-.115-4.543.4-5.843A3.345,3.345,0,0,1,4,34.009c1.3-.518,4.4-.4,5.843-.4s4.543-.115,5.843.4a3.345,3.345,0,0,1,1.884,1.884c.518,1.3.4,4.4.4,5.843S18.086,46.279,17.569,47.58Z" transform="translate(0.075 -31.825)" fill="#002b7f"/>
</svg>
