<svg xmlns="http://www.w3.org/2000/svg" width="40.32" height="40.319" viewBox="0 0 40.32 40.319">
  <g id="Group_297" data-name="Group 297" transform="translate(-70 -364)">
    <g id="Group_265" data-name="Group 265" transform="translate(0 -72)">
      <g id="Rectangle_19" data-name="Rectangle 19" transform="translate(-283.669 60.283)">
        <rect id="Rectangle_184" data-name="Rectangle 184" width="40.319" height="40.319" rx="10.673" transform="translate(353.669 375.717)" fill="#b2fce9"/>
        <path id="Path_121" data-name="Path 121" d="M386.481,416.036h-25.3a7.517,7.517,0,0,1-7.508-7.508v-25.3a7.517,7.517,0,0,1,7.508-7.508h25.3a7.517,7.517,0,0,1,7.508,7.508v25.3A7.516,7.516,0,0,1,386.481,416.036Zm-25.3-37.735a4.929,4.929,0,0,0-4.924,4.924v25.3a4.929,4.929,0,0,0,4.924,4.924h25.3a4.929,4.929,0,0,0,4.924-4.924v-25.3a4.929,4.929,0,0,0-4.924-4.924Z" transform="translate(0 0)" fill="#b2fce9"/>
      </g>
      <path id="instagram-brands" d="M15.006,39.169a7.73,7.73,0,1,0,7.73,7.73A7.717,7.717,0,0,0,15.006,39.169Zm0,12.755A5.025,5.025,0,1,1,20.031,46.9a5.034,5.034,0,0,1-5.025,5.025Zm9.849-13.071a1.8,1.8,0,1,1-1.8-1.8A1.8,1.8,0,0,1,24.854,38.853Zm5.119,1.83a8.922,8.922,0,0,0-2.435-6.317,8.981,8.981,0,0,0-6.317-2.435c-2.489-.141-9.95-.141-12.439,0a8.968,8.968,0,0,0-6.317,2.429A8.951,8.951,0,0,0,.031,40.676c-.141,2.489-.141,9.95,0,12.439a8.922,8.922,0,0,0,2.435,6.317,8.992,8.992,0,0,0,6.317,2.435c2.489.141,9.95.141,12.439,0a8.922,8.922,0,0,0,6.317-2.435,8.981,8.981,0,0,0,2.435-6.317C30.115,50.626,30.115,43.172,29.974,40.683Zm-3.216,15.1a5.088,5.088,0,0,1-2.866,2.866c-1.985.787-6.694.605-8.887.605s-6.909.175-8.887-.605a5.088,5.088,0,0,1-2.866-2.866c-.787-1.985-.605-6.694-.605-8.887s-.175-6.909.605-8.887a5.088,5.088,0,0,1,2.866-2.866c1.985-.787,6.694-.605,8.887-.605s6.909-.175,8.887.605a5.088,5.088,0,0,1,2.866,2.866c.787,1.985.605,6.694.605,8.887S27.545,53.808,26.758,55.786Z" transform="translate(75.075 409.176)" fill="#002b7f"/>
    </g>
  </g>
</svg>
