<svg xmlns="http://www.w3.org/2000/svg" width="19.816" height="19.816" viewBox="0 0 19.816 19.816">
  <path id="linkedin-brands" d="M18.4,32H1.411A1.422,1.422,0,0,0,0,33.429V50.388a1.422,1.422,0,0,0,1.411,1.429H18.4a1.425,1.425,0,0,0,1.415-1.429V33.429A1.425,1.425,0,0,0,18.4,32ZM5.989,48.986H3.052V39.528H5.994v9.457ZM4.521,38.237a1.7,1.7,0,1,1,1.7-1.7A1.7,1.7,0,0,1,4.521,38.237ZM17,48.986H14.062v-4.6c0-1.1-.022-2.508-1.526-2.508-1.53,0-1.765,1.194-1.765,2.428v4.68H7.834V39.528h2.818V40.82h.04a3.094,3.094,0,0,1,2.782-1.526c2.972,0,3.525,1.96,3.525,4.507Z" transform="translate(0 -32)" fill="#002b7f"/>
</svg>
