<svg xmlns="http://www.w3.org/2000/svg" width="40.32" height="40.319" viewBox="0 0 40.32 40.319">
  <g id="Group_296" data-name="Group 296" transform="translate(-70 -291)">
    <g id="Rectangle_19" data-name="Rectangle 19" transform="translate(-283.669 -84.717)">
      <rect id="Rectangle_184" data-name="Rectangle 184" width="40.319" height="40.319" rx="10.673" transform="translate(353.669 375.717)" fill="#b2fce9"/>
      <path id="Path_121" data-name="Path 121" d="M386.481,416.036h-25.3a7.517,7.517,0,0,1-7.508-7.508v-25.3a7.517,7.517,0,0,1,7.508-7.508h25.3a7.517,7.517,0,0,1,7.508,7.508v25.3A7.516,7.516,0,0,1,386.481,416.036Zm-25.3-37.735a4.929,4.929,0,0,0-4.924,4.924v25.3a4.929,4.929,0,0,0,4.924,4.924h25.3a4.929,4.929,0,0,0,4.924-4.924v-25.3a4.929,4.929,0,0,0-4.924-4.924Z" transform="translate(0 0)" fill="#b2fce9"/>
    </g>
    <path id="linkedin-in-brands" d="M5.4,24.151H.4V8.033H5.4ZM2.9,5.835A2.912,2.912,0,1,1,5.8,2.909,2.923,2.923,0,0,1,2.9,5.835ZM24.136,24.151H19.142V16.305c0-1.87-.038-4.268-2.6-4.268-2.6,0-3,2.032-3,4.133v7.981h-5V8.033h4.8v2.2h.07a5.259,5.259,0,0,1,4.736-2.6c5.065,0,6,3.336,6,7.668v8.854Z" transform="translate(78 298.99)" fill="#002b7f"/>
  </g>
</svg>
